<svg width="13" height="9" viewBox="0 0 13 9" fill="none" xmlns="http://www.w3.org/2000/svg">
<path d="M12.3709 0.308625C12.2896 0.226615 12.1928 0.161515 12.0862 0.117095C11.9795 0.0726745 11.8652 0.0498047 11.7497 0.0498047C11.6341 0.0498047 11.5198 0.0726745 11.4131 0.117095C11.3065 0.161515 11.2097 0.226615 11.1284 0.308625L4.60965 6.83617L1.8709 4.08857C1.78644 4.00707 1.68675 3.94289 1.5775 3.89983C1.46825 3.85678 1.35159 3.83567 1.23418 3.8377C1.11677 3.83973 1.00092 3.86488 0.893222 3.91167C0.785532 3.95848 0.688113 4.02608 0.606533 4.11048C0.524943 4.19497 0.460792 4.29467 0.417742 4.40387C0.374692 4.51318 0.353572 4.62977 0.355602 4.74717C0.357632 4.86467 0.382773 4.98047 0.429583 5.08817C0.476383 5.19587 0.543942 5.29327 0.628402 5.37487L3.9884 8.73487C4.06974 8.81687 4.16652 8.88197 4.27315 8.92637C4.37977 8.97087 4.49414 8.99368 4.60965 8.99368C4.72516 8.99368 4.83953 8.97087 4.94616 8.92637C5.05278 8.88197 5.14956 8.81687 5.2309 8.73487L12.3709 1.59487C12.4597 1.51293 12.5306 1.41349 12.5791 1.3028C12.6276 1.19211 12.6526 1.07258 12.6526 0.951755C12.6526 0.830915 12.6276 0.711385 12.5791 0.600695C12.5306 0.490005 12.4597 0.390565 12.3709 0.308625Z" fill="#1A1930"/>
</svg>
