<svg width="25" height="25" viewBox="0 0 25 25" fill="none" xmlns="http://www.w3.org/2000/svg">
<path d="M19.6133 9.83341C19.5177 9.69205 19.3889 9.57632 19.2382 9.4964C19.0874 9.41649 18.9193 9.37482 18.7487 9.37508H15.6237V7.29175H17.9154C18.1916 7.29175 18.4566 7.182 18.6519 6.98665C18.8473 6.7913 18.957 6.52635 18.957 6.25008V2.08341C18.957 1.80715 18.8473 1.5422 18.6519 1.34685C18.4566 1.15149 18.1916 1.04175 17.9154 1.04175H14.582C12.9797 1.04175 11.443 1.67828 10.3099 2.81131C9.1769 3.94434 8.54036 5.48107 8.54036 7.08341V9.37508H6.2487C5.97243 9.37508 5.70748 9.48483 5.51213 9.68018C5.31678 9.87553 5.20703 10.1405 5.20703 10.4167V14.5834C5.20703 14.8597 5.31678 15.1246 5.51213 15.32C5.70748 15.5153 5.97243 15.6251 6.2487 15.6251H8.54036V22.9167C8.54036 23.193 8.65011 23.458 8.84546 23.6533C9.04081 23.8487 9.30576 23.9584 9.58203 23.9584H14.582C14.8583 23.9584 15.1233 23.8487 15.3186 23.6533C15.514 23.458 15.6237 23.193 15.6237 22.9167V15.6251H17.082C17.2907 15.6253 17.4945 15.5628 17.6673 15.4458C17.84 15.3288 17.9736 15.1626 18.0508 14.9688L19.7174 10.8022C19.7804 10.6444 19.8038 10.4737 19.7856 10.3049C19.7675 10.136 19.7083 9.97417 19.6133 9.83341ZM16.3737 13.5417H14.582C14.3058 13.5417 14.0408 13.6515 13.8455 13.8468C13.6501 14.0422 13.5404 14.3071 13.5404 14.5834V21.8751H10.6237V14.5834C10.6237 14.3071 10.514 14.0422 10.3186 13.8468C10.1233 13.6515 9.8583 13.5417 9.58203 13.5417H7.29036V11.4584H9.58203C9.8583 11.4584 10.1233 11.3487 10.3186 11.1533C10.514 10.958 10.6237 10.693 10.6237 10.4167V7.08341C10.6264 6.03444 11.0444 5.02922 11.7861 4.28749C12.5278 3.54575 13.5331 3.12783 14.582 3.12508H16.8737V5.20841H16.0404C15.6877 5.15703 15.3282 5.1786 14.9842 5.27177C14.6402 5.36494 14.3189 5.52774 14.0404 5.75008C13.8713 5.92706 13.7399 6.13643 13.6539 6.36559C13.568 6.59474 13.5294 6.83893 13.5404 7.08341V10.4167C13.5404 10.693 13.6501 10.958 13.8455 11.1533C14.0408 11.3487 14.3058 11.4584 14.582 11.4584H17.207L16.3737 13.5417Z" fill="#1A1930"/>
</svg>
