<svg width="21" height="21" viewBox="0 0 21 21" fill="none" xmlns="http://www.w3.org/2000/svg">
<path d="M16.0612 3.68742C15.814 3.68742 15.5723 3.76073 15.3667 3.89808C15.1612 4.03543 15.001 4.23066 14.9063 4.45906C14.8117 4.68747 14.787 4.93881 14.8352 5.18128C14.8834 5.42376 15.0025 5.64649 15.1773 5.8213C15.3521 5.99612 15.5749 6.11517 15.8173 6.1634C16.0598 6.21163 16.3111 6.18688 16.5396 6.09227C16.768 5.99766 16.9632 5.83744 17.1005 5.63188C17.2379 5.42632 17.3112 5.18465 17.3112 4.93742C17.3112 4.6059 17.1795 4.28796 16.9451 4.05354C16.7107 3.81912 16.3927 3.68742 16.0612 3.68742ZM20.8529 6.20825C20.8326 5.34398 20.6707 4.48888 20.3737 3.677C20.1088 2.98235 19.6966 2.35333 19.1654 1.83325C18.6496 1.29932 18.0191 0.889692 17.3216 0.635342C16.5119 0.329252 15.6558 0.163682 14.7904 0.145752C13.6862 0.083252 13.332 0.083252 10.4987 0.083252C7.66537 0.083252 7.3112 0.083252 6.20703 0.145752C5.34157 0.163682 4.48551 0.329252 3.67578 0.635342C2.97961 0.892262 2.34967 1.30154 1.83203 1.83325C1.2981 2.34906 0.888471 2.97954 0.634111 3.677C0.328031 4.48673 0.162461 5.34279 0.144531 6.20825C0.0820312 7.31242 0.0820312 7.66659 0.0820312 10.4999C0.0820312 13.3333 0.0820312 13.6874 0.144531 14.7916C0.162461 15.6571 0.328031 16.5131 0.634111 17.3228C0.888471 18.0203 1.2981 18.6508 1.83203 19.1666C2.34967 19.6983 2.97961 20.1076 3.67578 20.3645C4.48551 20.6706 5.34157 20.8362 6.20703 20.8541C7.3112 20.9166 7.66537 20.9166 10.4987 20.9166C13.332 20.9166 13.6862 20.9166 14.7904 20.8541C15.6558 20.8362 16.5119 20.6706 17.3216 20.3645C18.0191 20.1102 18.6496 19.7005 19.1654 19.1666C19.699 18.6484 20.1115 18.0189 20.3737 17.3228C20.6707 16.511 20.8326 15.6559 20.8529 14.7916C20.8529 13.6874 20.9154 13.3333 20.9154 10.4999C20.9154 7.66659 20.9154 7.31242 20.8529 6.20825ZM18.9779 14.6666C18.9703 15.3278 18.8505 15.9829 18.6237 16.6041C18.4574 17.0574 18.1902 17.467 17.8424 17.802C17.5046 18.1463 17.0958 18.4129 16.6445 18.5833C16.0234 18.8101 15.3683 18.9298 14.707 18.9374C13.6654 18.9895 13.2799 18.9999 10.5404 18.9999C7.80078 18.9999 7.41537 18.9999 6.3737 18.9374C5.68713 18.9503 5.00348 18.8446 4.35286 18.6249C3.92139 18.4458 3.53136 18.1799 3.20703 17.8437C2.86129 17.509 2.59749 17.0991 2.4362 16.6458C2.18188 16.0157 2.04083 15.3457 2.01953 14.6666C2.01953 13.6249 1.95703 13.2395 1.95703 10.4999C1.95703 7.76034 1.95703 7.37492 2.01953 6.33325C2.0242 5.65727 2.1476 4.98736 2.38411 4.35409C2.5675 3.91441 2.84897 3.52248 3.20703 3.20825C3.5235 2.85009 3.91462 2.56564 4.35286 2.37492C4.98781 2.1458 5.65703 2.02604 6.33203 2.02075C7.3737 2.02075 7.75912 1.95825 10.4987 1.95825C13.2383 1.95825 13.6237 1.95825 14.6654 2.02075C15.3266 2.02834 15.9817 2.14809 16.6029 2.37492C17.0762 2.5506 17.5011 2.83622 17.8424 3.20825C18.1838 3.52823 18.4505 3.91943 18.6237 4.35409C18.8552 4.98839 18.975 5.65802 18.9779 6.33325C19.0299 7.37492 19.0404 7.76034 19.0404 10.4999C19.0404 13.2395 19.0299 13.6249 18.9779 14.6666ZM10.4987 5.15617C9.4423 5.15823 8.4101 5.47338 7.53271 6.06181C6.65531 6.65024 5.97201 7.48554 5.56915 8.4622C5.16629 9.4388 5.06195 10.5129 5.26932 11.5488C5.47668 12.5847 5.98644 13.5359 6.73419 14.2822C7.48194 15.0285 8.4341 15.5364 9.4704 15.7417C10.5067 15.9471 11.5806 15.8407 12.5565 15.4359C13.5323 15.0311 14.3663 14.3462 14.953 13.4677C15.5397 12.5891 15.8529 11.5564 15.8529 10.4999C15.8542 9.7969 15.7166 9.1006 15.4479 8.4509C15.1792 7.80128 14.7847 7.21118 14.2871 6.71456C13.7895 6.21793 13.1986 5.82458 12.5485 5.55714C11.8983 5.28969 11.2017 5.15342 10.4987 5.15617ZM10.4987 13.9687C9.8126 13.9687 9.142 13.7652 8.5716 13.3841C8.0011 13.0029 7.55653 12.4612 7.29399 11.8274C7.03145 11.1935 6.96276 10.4961 7.0966 9.8232C7.23044 9.1503 7.56081 8.5323 8.0459 8.0471C8.531 7.56203 9.1491 7.23166 9.822 7.09782C10.4949 6.96398 11.1923 7.03267 11.8261 7.29521C12.46 7.55775 13.0017 8.0024 13.3829 8.5728C13.764 9.1432 13.9674 9.8139 13.9674 10.4999C13.9674 10.9554 13.8777 11.4065 13.7034 11.8274C13.5291 12.2482 13.2736 12.6306 12.9515 12.9527C12.6294 13.2748 12.247 13.5303 11.8261 13.7046C11.4053 13.8789 10.9542 13.9687 10.4987 13.9687Z" fill="#1A1930"/>
</svg>
