<svg width="19" height="15" viewBox="0 0 19 15" fill="none" xmlns="http://www.w3.org/2000/svg">
<path d="M10.6375 7.6925C11.1044 7.2884 11.4789 6.78852 11.7355 6.2269C11.9922 5.66527 12.125 5.055 12.125 4.4375C12.125 3.27718 11.6641 2.16438 10.8436 1.34391C10.0231 0.52344 8.91032 0.0625 7.75 0.0625C6.58968 0.0625 5.47688 0.52344 4.65641 1.34391C3.83594 2.16438 3.375 3.27718 3.375 4.4375C3.37499 5.055 3.50783 5.66527 3.76448 6.2269C4.02114 6.78852 4.39562 7.2884 4.8625 7.6925C3.63762 8.2471 2.59841 9.1428 1.86911 10.2725C1.13981 11.4021 0.75129 12.7179 0.75 14.0625C0.75 14.2946 0.84219 14.5171 1.00628 14.6812C1.17038 14.8453 1.39294 14.9375 1.625 14.9375C1.85706 14.9375 2.07962 14.8453 2.24372 14.6812C2.40781 14.5171 2.5 14.2946 2.5 14.0625C2.5 12.6701 3.05312 11.3348 4.03769 10.3502C5.02226 9.3656 6.35761 8.8125 7.75 8.8125C9.1424 8.8125 10.4777 9.3656 11.4623 10.3502C12.4469 11.3348 13 12.6701 13 14.0625C13 14.2946 13.0922 14.5171 13.2563 14.6812C13.4204 14.8453 13.6429 14.9375 13.875 14.9375C14.1071 14.9375 14.3296 14.8453 14.4937 14.6812C14.6578 14.5171 14.75 14.2946 14.75 14.0625C14.7487 12.7179 14.3602 11.4021 13.6309 10.2725C12.9016 9.1428 11.8624 8.2471 10.6375 7.6925ZM7.75 7.0625C7.23082 7.0625 6.72331 6.90855 6.29163 6.62011C5.85995 6.33167 5.5235 5.9217 5.32482 5.44204C5.12614 4.96239 5.07415 4.43459 5.17544 3.92539C5.27673 3.41619 5.52673 2.94846 5.89384 2.58134C6.26096 2.21423 6.72869 1.96423 7.23789 1.86294C7.74709 1.76165 8.27489 1.81364 8.75454 2.01232C9.2342 2.211 9.6442 2.54745 9.9326 2.97913C10.221 3.41081 10.375 3.91832 10.375 4.4375C10.375 5.13369 10.0984 5.80137 9.6062 6.29366C9.1139 6.78594 8.44619 7.0625 7.75 7.0625ZM17.9962 4.98875C17.9149 4.90674 17.8181 4.84164 17.7115 4.79722C17.6049 4.7528 17.4905 4.72993 17.375 4.72993C17.2595 4.72993 17.1451 4.7528 17.0385 4.79722C16.9319 4.84164 16.8351 4.90674 16.7538 4.98875L15.0038 6.73875L14.4613 6.1875C14.3799 6.10549 14.2831 6.04039 14.1765 5.99597C14.0699 5.95155 13.9555 5.92868 13.84 5.92868C13.7245 5.92868 13.6101 5.95155 13.5035 5.99597C13.3969 6.04039 13.3001 6.10549 13.2188 6.1875C13.0558 6.35144 12.9643 6.57321 12.9643 6.80437C12.9643 7.0355 13.0558 7.2573 13.2188 7.4212L14.3913 8.5938C14.5552 8.7567 14.777 8.8482 15.0081 8.8482C15.2393 8.8482 15.4611 8.7567 15.625 8.5938L17.9613 6.2575C18.0496 6.17816 18.1209 6.08166 18.1707 5.9739C18.2206 5.86613 18.248 5.74934 18.2512 5.63064C18.2545 5.51195 18.2336 5.39382 18.1898 5.28347C18.1459 5.17312 18.0801 5.07284 17.9962 4.98875Z" fill="#1A1930"/>
</svg>
