<svg width="19" height="17" viewBox="0 0 19 17" fill="none" xmlns="http://www.w3.org/2000/svg">
<path d="M18.2483 6.46119C18.1931 6.30115 18.0926 6.16057 17.959 6.05651C17.8254 5.95245 17.6645 5.88938 17.4958 5.87494L12.5171 5.14869L10.2858 0.624938C10.2142 0.477008 10.1023 0.352238 9.963 0.264948C9.8238 0.177648 9.6627 0.131348 9.4983 0.131348C9.334 0.131348 9.1729 0.177648 9.0336 0.264948C8.89435 0.352238 8.78248 0.477008 8.71083 0.624938L6.47958 5.13994L1.50083 5.87494C1.33889 5.89796 1.18664 5.96591 1.06136 6.07108C0.936091 6.17625 0.842802 6.31443 0.792082 6.46994C0.745662 6.62191 0.741491 6.78365 0.780031 6.9378C0.818571 7.09195 0.898361 7.2327 1.01083 7.34494L4.62458 10.8449L3.74958 15.8149C3.71426 15.9798 3.72732 16.1514 3.78719 16.309C3.84707 16.4666 3.95121 16.6036 4.0871 16.7034C4.22298 16.8032 4.38481 16.8617 4.55312 16.8717C4.72143 16.8817 4.88906 16.8429 5.03583 16.7599L9.4983 14.4237L13.9608 16.7599C14.0836 16.8292 14.2223 16.8654 14.3633 16.8649C14.5487 16.8656 14.7294 16.8074 14.8796 16.6987C15.0153 16.6014 15.1204 16.4674 15.1824 16.3123C15.2445 16.1573 15.2608 15.9877 15.2296 15.8237L14.3546 10.8537L17.9683 7.35369C18.0947 7.24666 18.188 7.10598 18.2376 6.948C18.2872 6.79001 18.2909 6.62121 18.2483 6.46119ZM12.8671 9.9612C12.7658 10.0595 12.6898 10.1809 12.6456 10.315C12.6015 10.4491 12.5904 10.5919 12.6133 10.7312L13.2433 14.4062L9.9533 12.6562C9.8255 12.5929 9.6847 12.56 9.5421 12.56C9.3994 12.56 9.2587 12.5929 9.1308 12.6562L5.84083 14.4062L6.47083 10.7312C6.49379 10.5919 6.4827 10.4491 6.43852 10.315C6.39433 10.1809 6.31836 10.0595 6.21708 9.9612L3.59208 7.33619L7.27583 6.80244C7.41758 6.78273 7.55233 6.72854 7.66827 6.64464C7.78421 6.56074 7.8778 6.44968 7.94083 6.32119L9.4983 2.98744L11.1433 6.32994C11.2064 6.45843 11.3 6.56949 11.4159 6.65339C11.5318 6.73729 11.6666 6.79148 11.8083 6.81119L15.4921 7.34494L12.8671 9.9612Z" fill="#1A1930"/>
</svg>
