<svg width="19" height="17" viewBox="0 0 19 17" fill="none" xmlns="http://www.w3.org/2000/svg">
<path d="M4.7925 9.445C4.68392 9.4843 4.5853 9.547 4.50365 9.6286C4.422 9.7103 4.3593 9.8089 4.32 9.9175C4.25635 10.0765 4.24077 10.2507 4.27519 10.4185C4.30961 10.5862 4.39251 10.7402 4.51362 10.8614C4.63473 10.9825 4.78873 11.0654 4.95651 11.0998C5.12429 11.1342 5.29849 11.1186 5.4575 11.055C5.56354 11.0107 5.6612 10.9485 5.74625 10.8712C5.82354 10.7862 5.88569 10.6885 5.93 10.5825C5.97898 10.4786 6.00296 10.3648 6 10.25C5.99678 10.0183 5.90614 9.7964 5.74625 9.6287C5.6232 9.5073 5.46695 9.4251 5.29721 9.3924C5.12747 9.3597 4.95185 9.378 4.7925 9.445ZM16.29 5.94497L15.1 2.41872C14.9185 1.9053 14.5818 1.46104 14.1365 1.14749C13.6913 0.833941 13.1596 0.666621 12.615 0.668721H6.385C5.84044 0.666621 5.3087 0.833941 4.86346 1.14749C4.41822 1.46104 4.08152 1.9053 3.9 2.41872L2.71 5.97122C2.15029 6.11779 1.65468 6.44518 1.30023 6.90248C0.94577 7.35979 0.75234 7.92139 0.75 8.5V12C0.75152 12.5415 0.92052 13.0694 1.23382 13.5112C1.54712 13.9529 1.98939 14.2869 2.5 14.4675V15.5C2.5 15.732 2.59219 15.9546 2.75628 16.1187C2.92038 16.2828 3.14294 16.375 3.375 16.375C3.60706 16.375 3.82962 16.2828 3.99372 16.1187C4.15781 15.9546 4.25 15.732 4.25 15.5V14.625H14.75V15.5C14.75 15.732 14.8422 15.9546 15.0063 16.1187C15.1704 16.2828 15.3929 16.375 15.625 16.375C15.8571 16.375 16.0796 16.2828 16.2437 16.1187C16.4078 15.9546 16.5 15.732 16.5 15.5V14.4675C17.0106 14.2869 17.4529 13.9529 17.7662 13.5112C18.0795 13.0694 18.2485 12.5415 18.25 12V8.5C18.2477 7.92139 18.0542 7.35979 17.6998 6.90248C17.3453 6.44518 16.8497 6.11779 16.29 5.97122V5.94497ZM5.55375 2.96997C5.61245 2.79618 5.72429 2.64523 5.87345 2.53846C6.02261 2.43169 6.20156 2.3745 6.385 2.37497H12.615C12.8058 2.36501 12.9946 2.41778 13.1526 2.52522C13.3106 2.63266 13.4291 2.78886 13.49 2.96997L14.4088 5.87497H4.59125L5.55375 2.96997ZM16.5 12C16.5 12.232 16.4078 12.4546 16.2437 12.6187C16.0796 12.7828 15.8571 12.875 15.625 12.875H3.375C3.14294 12.875 2.92038 12.7828 2.75628 12.6187C2.59219 12.4546 2.5 12.232 2.5 12V8.5C2.5 8.2679 2.59219 8.0453 2.75628 7.88125C2.92038 7.71716 3.14294 7.62497 3.375 7.62497H15.625C15.8571 7.62497 16.0796 7.71716 16.2437 7.88125C16.4078 8.0453 16.5 8.2679 16.5 8.5V12ZM13.5425 9.445C13.4339 9.4843 13.3353 9.547 13.2536 9.6286C13.172 9.7103 13.1093 9.8089 13.07 9.9175C13.0064 10.0765 12.9908 10.2507 13.0252 10.4185C13.0596 10.5862 13.1425 10.7402 13.2636 10.8614C13.3847 10.9825 13.5387 11.0654 13.7065 11.0998C13.8743 11.1342 14.0485 11.1186 14.2075 11.055C14.3161 11.0157 14.4147 10.953 14.4964 10.8713C14.578 10.7897 14.6407 10.6911 14.68 10.5825C14.729 10.4786 14.753 10.3648 14.75 10.25C14.7468 10.0183 14.6561 9.7964 14.4962 9.6287C14.3732 9.5073 14.217 9.4251 14.0472 9.3924C13.8775 9.3597 13.7018 9.378 13.5425 9.445ZM10.375 9.375H8.625C8.39294 9.375 8.17038 9.4672 8.00628 9.6313C7.84219 9.7953 7.75 10.0179 7.75 10.25C7.75 10.482 7.84219 10.7046 8.00628 10.8687C8.17038 11.0328 8.39294 11.125 8.625 11.125H10.375C10.6071 11.125 10.8296 11.0328 10.9937 10.8687C11.1578 10.7046 11.25 10.482 11.25 10.25C11.25 10.0179 11.1578 9.7953 10.9937 9.6313C10.8296 9.4672 10.6071 9.375 10.375 9.375Z" fill="#1A1930"/>
</svg>
