<svg width="19" height="19" viewBox="0 0 19 19" fill="none" xmlns="http://www.w3.org/2000/svg">
<path d="M17.375 8.625C16.85 8.625 16.5 8.975 16.5 9.5C16.5 12.0375 15.1875 14.3125 13 15.5375C9.675 17.4625 5.3875 16.325 3.4625 13C1.5375 9.675 2.675 5.3875 6 3.4625C8.8875 1.8 12.3875 2.4125 14.575 4.6875H12.475C11.95 4.6875 11.6 5.0375 11.6 5.5625C11.6 6.0875 11.95 6.4375 12.475 6.4375H16.4125C16.9375 6.4375 17.2875 6.0875 17.2875 5.5625V1.625C17.2875 1.1 16.9375 0.75 16.4125 0.75C15.8875 0.75 15.5375 1.1 15.5375 1.625V3.2C13.875 1.625 11.775 0.75 9.5 0.75C4.6875 0.75 0.75 4.6875 0.75 9.5C0.75 14.3125 4.6875 18.25 9.5 18.25C14.3125 18.25 18.25 14.3125 18.25 9.5C18.25 8.975 17.9 8.625 17.375 8.625Z" fill="#1A1930"/>
</svg>
