<svg width="19" height="19" viewBox="0 0 19 19" fill="none" xmlns="http://www.w3.org/2000/svg">
<path d="M17.655 7.35625L16.0013 6.805L16.78 5.2475C16.8589 5.08448 16.8853 4.90097 16.8556 4.7223C16.8258 4.54364 16.7413 4.37861 16.6138 4.25L14.75 2.38625C14.6207 2.25683 14.4541 2.17118 14.2736 2.14136C14.0931 2.11154 13.9078 2.13904 13.7438 2.22L12.1863 2.99875L11.635 1.345C11.5768 1.17262 11.4663 1.02268 11.3189 0.916033C11.1714 0.809393 10.9944 0.751353 10.8125 0.750003H8.1875C8.00406 0.749533 7.82512 0.806723 7.67595 0.913493C7.52679 1.02026 7.41495 1.17121 7.35625 1.345L6.805 2.99875L5.2475 2.22C5.08448 2.14106 4.90097 2.11466 4.7223 2.14443C4.54364 2.17421 4.37861 2.2587 4.25 2.38625L2.38625 4.25C2.25683 4.3793 2.17118 4.54591 2.14136 4.7264C2.11154 4.9069 2.13904 5.0922 2.22 5.25625L2.99875 6.81375L1.345 7.365C1.17262 7.42322 1.02268 7.53373 0.916033 7.68115C0.809393 7.82856 0.751353 8.00556 0.750003 8.1875V10.8125C0.749533 10.9959 0.806723 11.1749 0.913493 11.3241C1.02026 11.4732 1.17121 11.5851 1.345 11.6438L2.99875 12.195L2.22 13.7525C2.14106 13.9155 2.11466 14.099 2.14443 14.2777C2.17421 14.4564 2.2587 14.6214 2.38625 14.75L4.25 16.6138C4.3793 16.7432 4.54591 16.8288 4.7264 16.8586C4.9069 16.8885 5.0922 16.861 5.25625 16.78L6.81375 16.0013L7.365 17.655C7.4237 17.8288 7.53554 17.9797 7.6847 18.0865C7.83387 18.1933 8.01281 18.2505 8.19625 18.25H10.8213C11.0047 18.2505 11.1836 18.1933 11.3328 18.0865C11.482 17.9797 11.5938 17.8288 11.6525 17.655L12.2038 16.0013L13.7613 16.78C13.9232 16.857 14.105 16.8823 14.2818 16.8525C14.4586 16.8228 14.6221 16.7394 14.75 16.6138L16.6138 14.75C16.7432 14.6207 16.8288 14.4541 16.8586 14.2736C16.8885 14.0931 16.861 13.9078 16.78 13.7438L16.0013 12.1863L17.655 11.635C17.8274 11.5768 17.9773 11.4663 18.084 11.3189C18.1906 11.1714 18.2487 10.9944 18.25 10.8125V8.1875C18.2505 8.00406 18.1933 7.82512 18.0865 7.67595C17.9797 7.52679 17.8288 7.41495 17.655 7.35625ZM16.5 10.1825L15.45 10.5325C15.2086 10.6108 14.987 10.7407 14.8008 10.9132C14.6146 11.0857 14.4681 11.2966 14.3715 11.5314C14.275 11.7661 14.2306 12.0191 14.2416 12.2727C14.2525 12.5263 14.3185 12.7745 14.435 13L14.9338 13.9975L13.9713 14.96L13 14.435C12.7756 14.3232 12.5298 14.2609 12.2793 14.2524C12.0287 14.2438 11.7793 14.2892 11.5478 14.3855C11.3163 14.4817 11.1082 14.6266 10.9376 14.8102C10.7669 14.9939 10.6377 15.2121 10.5588 15.45L10.2088 16.5H8.8175L8.4675 15.45C8.38918 15.2086 8.25927 14.987 8.08679 14.8008C7.9143 14.6146 7.70337 14.4681 7.46862 14.3715C7.23387 14.275 6.98092 14.2306 6.72732 14.2416C6.47373 14.2525 6.22555 14.3185 6 14.435L5.0025 14.9338L4.04 13.9713L4.565 13C4.68146 12.7745 4.74746 12.5263 4.75842 12.2727C4.76938 12.0191 4.72504 11.7661 4.62847 11.5314C4.53191 11.2966 4.38543 11.0857 4.1992 10.9132C4.01298 10.7407 3.79145 10.6108 3.55 10.5325L2.5 10.1825V8.8175L3.55 8.4675C3.79145 8.38918 4.01298 8.25927 4.1992 8.08679C4.38543 7.9143 4.53191 7.70337 4.62847 7.46862C4.72504 7.23387 4.76938 6.98092 4.75842 6.72732C4.74746 6.47373 4.68146 6.22555 4.565 6L4.06625 5.02875L5.02875 4.06625L6 4.565C6.22555 4.68146 6.47373 4.74746 6.72732 4.75842C6.98092 4.76938 7.23387 4.72504 7.46862 4.62847C7.70337 4.53191 7.9143 4.38543 8.08679 4.1992C8.25927 4.01298 8.38918 3.79145 8.4675 3.55L8.8175 2.5H10.1825L10.5325 3.55C10.6108 3.79145 10.7407 4.01298 10.9132 4.1992C11.0857 4.38543 11.2966 4.53191 11.5314 4.62847C11.7661 4.72504 12.0191 4.76938 12.2727 4.75842C12.5263 4.74746 12.7745 4.68146 13 4.565L13.9975 4.06625L14.96 5.02875L14.435 6C14.3232 6.22439 14.2609 6.47018 14.2524 6.72073C14.2438 6.97128 14.2892 7.22074 14.3855 7.45222C14.4817 7.68371 14.6266 7.89181 14.8102 8.06245C14.9939 8.23308 15.2121 8.36227 15.45 8.44125L16.5 8.79125V10.1825ZM9.5 6C8.80777 6 8.13108 6.20527 7.55551 6.58986C6.97994 6.97444 6.53133 7.52107 6.26642 8.16061C6.00152 8.80015 5.93221 9.5039 6.06725 10.1828C6.2023 10.8618 6.53564 11.4854 7.02513 11.9749C7.51461 12.4644 8.13825 12.7977 8.81719 12.9328C9.4961 13.0678 10.1999 12.9985 10.8394 12.7336C11.4789 12.4687 12.0256 12.0201 12.4101 11.4445C12.7947 10.8689 13 10.1922 13 9.5C13 8.57174 12.6313 7.68151 11.9749 7.02513C11.3185 6.36875 10.4283 6 9.5 6ZM9.5 11.25C9.1539 11.25 8.81554 11.1474 8.52775 10.9551C8.23997 10.7628 8.01567 10.4895 7.88321 10.1697C7.75076 9.8499 7.7161 9.4981 7.78363 9.1586C7.85115 8.81913 8.01782 8.50731 8.26257 8.26257C8.50731 8.01782 8.81913 7.85115 9.1586 7.78363C9.4981 7.7161 9.8499 7.75076 10.1697 7.88321C10.4895 8.01567 10.7628 8.23997 10.9551 8.52775C11.1474 8.81554 11.25 9.1539 11.25 9.5C11.25 9.9641 11.0656 10.4092 10.7374 10.7374C10.4092 11.0656 9.9641 11.25 9.5 11.25Z" fill="#1A1930"/>
</svg>
