<svg width="15" height="21" viewBox="0 0 15 21" fill="none" xmlns="http://www.w3.org/2000/svg">
<path d="M13.6172 18.3767H12.7422V16.9181C12.7395 16.4174 12.6508 15.9208 12.4801 15.4501C12.4705 15.4244 12.4605 15.4006 12.4487 15.3761C12.3069 14.9897 12.1112 14.6254 11.8672 14.2939L10.6423 12.6602C10.3024 12.205 10.1183 11.6525 10.1172 11.0845V10.2009C10.1192 9.50519 10.3954 8.83834 10.8858 8.34493L11.4609 7.76985C12.129 7.09807 12.5583 6.22556 12.6826 5.28627C12.6831 5.2741 12.6896 5.26395 12.6896 5.25167L12.6872 5.23965C12.7176 5.05334 12.736 4.86527 12.7422 4.6766V2.62671H13.6172C13.8493 2.62671 14.0718 2.53452 14.2359 2.37043C14.4 2.20633 14.4922 1.98377 14.4922 1.75171C14.4922 1.51964 14.4 1.29708 14.2359 1.13299C14.0718 0.968896 13.8493 0.876709 13.6172 0.876709H1.3672C1.13513 0.876709 0.912568 0.968896 0.748478 1.13299C0.584378 1.29708 0.492198 1.51964 0.492198 1.75171C0.492198 1.98377 0.584378 2.20633 0.748478 2.37043C0.912568 2.53452 1.13513 2.62671 1.3672 2.62671H2.2422V4.6766C2.24841 4.86527 2.26679 5.05334 2.29721 5.23965L2.29474 5.25171C2.29474 5.26396 2.30125 5.27414 2.30174 5.28632C2.42613 6.2256 2.85534 7.09811 3.5235 7.7699L4.09858 8.34497C4.58901 8.83837 4.86518 9.50521 4.86719 10.2009V11.0845C4.86605 11.6524 4.68209 12.2049 4.34253 12.6601L3.11676 14.2939C2.87285 14.6255 2.67713 14.99 2.53543 15.3764C2.5238 15.4007 2.5138 15.4242 2.50435 15.4497C2.3336 15.9205 2.24493 16.4172 2.24219 16.9181V18.3767H1.36719C1.13512 18.3767 0.912558 18.4689 0.748468 18.633C0.584368 18.7971 0.492188 19.0196 0.492188 19.2517C0.492188 19.4838 0.584368 19.7063 0.748468 19.8704C0.912558 20.0345 1.13512 20.1267 1.36719 20.1267H13.6172C13.8493 20.1267 14.0718 20.0345 14.2359 19.8704C14.4 19.7063 14.4922 19.4838 14.4922 19.2517C14.4922 19.0196 14.4 18.7971 14.2359 18.633C14.0718 18.4689 13.8493 18.3767 13.6172 18.3767ZM3.99219 4.37671V2.62671H10.9922V4.37671H3.99219ZM4.7608 6.5326C4.63751 6.40873 4.52703 6.27275 4.43103 6.12671H10.5533C10.4573 6.27275 10.3469 6.40873 10.2236 6.5326L9.6485 7.10767C8.966 7.78619 8.5283 8.67232 8.4044 9.62671H6.57998C6.45605 8.67229 6.01841 7.78613 5.33587 7.10758L4.7608 6.5326ZM5.74262 13.7095C6.24891 13.0311 6.54912 12.2212 6.60736 11.3767H8.377C8.4352 12.2213 8.7356 13.0312 9.2422 13.7095L10.1173 14.8767H4.86686L5.74262 13.7095ZM10.9922 18.3767H3.99219V16.9181C3.99462 16.8206 4.00257 16.7233 4.016 16.6267H10.9684C10.9818 16.7233 10.9898 16.8206 10.9922 16.9181V18.3767Z" fill="#1A1930"/>
</svg>
