<svg width="68" height="45" viewBox="0 0 68 45" fill="none" xmlns="http://www.w3.org/2000/svg">
<path d="M44.5401 3.37579C44.1391 3.91005 44.0751 4.52778 44.362 5.09325C44.6489 5.65872 45.2632 6.12567 46.0701 6.39154C50.4159 7.81596 54.1075 9.9836 56.7623 12.6699C59.417 15.3561 60.9385 18.4634 61.1691 21.6698C61.3997 24.8761 60.3311 28.065 58.0739 30.906C55.8167 33.7471 52.4531 36.1371 48.3312 37.8284C44.2094 39.5198 39.4796 40.4508 34.6314 40.5254C29.783 40.5999 24.993 39.815 20.7571 38.2522C16.5211 36.6893 12.9935 34.4052 10.5395 31.6365C8.08551 28.8679 6.79444 25.7153 6.80002 22.5052C6.77807 19.1494 8.18598 15.8576 10.8621 13.0073C13.5383 10.1572 17.3745 7.86414 21.93 6.39154C22.7416 6.12291 23.3587 5.65192 23.6456 5.08214C23.9325 4.51237 23.8657 3.89048 23.46 3.35329C23.0541 2.8161 22.3426 2.40761 21.4819 2.21768C20.6212 2.02776 19.6816 2.07196 18.87 2.34055C12.0045 4.59872 6.49354 8.32638 3.23149 12.9186C-0.0305828 17.5109 -0.852212 22.6981 0.899934 27.6383C2.65206 32.5785 6.87514 36.9817 12.8837 40.1334C18.8922 43.285 26.3337 45 34 45C41.6664 45 49.1077 43.285 55.1162 40.1334C61.1249 36.9817 65.3479 32.5785 67.1 27.6383C68.8523 22.6981 68.0306 17.5109 64.7685 12.9186C61.5065 8.32638 55.9954 4.59871 49.1301 2.34055C48.7266 2.20644 48.287 2.12682 47.8367 2.10636C47.3864 2.08589 46.9344 2.12498 46.5071 2.22133C46.0799 2.3177 45.6859 2.46942 45.3482 2.66762C45.0104 2.86582 44.7357 3.10657 44.5401 3.37579ZM30.6 2.25053V23.8331L22.8141 18.6568C22.497 18.4471 22.1206 18.2806 21.7064 18.1671C21.2922 18.0534 20.8483 17.995 20.4 17.995C19.9517 17.995 19.5078 18.0534 19.0936 18.1671C18.6794 18.2806 18.3031 18.4471 17.986 18.6568C17.669 18.8667 17.4176 19.1158 17.246 19.39C17.0743 19.6642 16.9861 19.958 16.9861 20.2548C16.9861 20.5515 17.0743 20.8453 17.246 21.1195C17.4176 21.3937 17.669 21.6428 17.986 21.8527L31.5861 30.8547C31.9094 31.0597 32.2906 31.2202 32.7081 31.3273C33.5358 31.5525 34.4643 31.5525 35.292 31.3273C35.7093 31.2202 36.0907 31.0597 36.414 30.8547L50.014 21.8527C50.3327 21.6434 50.5856 21.3945 50.7581 21.1203C50.9308 20.846 51.0197 20.5518 51.0197 20.2548C51.0197 19.9577 50.9308 19.6635 50.7581 19.3893C50.5856 19.115 50.3327 18.8661 50.014 18.6568C49.6978 18.446 49.3218 18.2785 48.9076 18.1642C48.4932 18.05 48.0489 17.9912 47.6001 17.9912C47.1511 17.9912 46.7067 18.05 46.2923 18.1642C45.8781 18.2785 45.5021 18.446 45.186 18.6568L37.4001 23.8331V2.25053C37.4001 1.65365 37.0418 1.08123 36.4042 0.65917C35.7666 0.237115 34.9018 0 34 0C33.0983 0 32.2335 0.237115 31.5959 0.65917C30.9582 1.08123 30.6 1.65365 30.6 2.25053Z" fill="#2D2B5C"/>
</svg>
